<svg width="200" height="200" viewBox="0 0 220 100" xmlns="http://www.w3.org/2000/svg">
  <path d="M112.93,33.4c0,11.8-8.1,20.6-19.9,20.6-11.5,0-20.6-8.3-20.6-20.6S81.93,12.9,93,12.9C103.83,12.9,112.93,21.2,112.93,33.4Zm12.9.6c0-19.9-12.9-34-32.8-34a33.55,33.55,0,0,0-33.5,33.4c0,19.3,14.4,33.5,33.5,33.5,7.4,0,15.4-3.1,19.9-7.6v6.9h12.9Zm64.77-.6c0,11.1-7.9,20.6-20.6,20.6a20.42,20.42,0,0,1-20.5-20.6,20.55,20.55,0,0,1,41.1,0Zm12.9,0C203.5,15.9,188.5,0,170,0c-19,0-33.4,14.3-33.4,34V89.3h12.9V59.5c3.1,2.9,12,7.4,20.5,7.4C190,66.9,203.5,51.5,203.5,33.4ZM27.2,90.4c17.4,0,26-12.1,26-25.4A22.7,22.7,0,0,0,40.3,44.3c6.9-3.5,11.4-11.7,11.4-20.7C51.7,10.8,41.6,0,26.6,0S1.3,9.9.9,23.9H13.7A12.37,12.37,0,0,1,26.2,12.1c7.3,0,12.3,4.8,12.3,11.9,0,8.4-6.1,14.3-15.6,14.3H20V50.4h2.9c10.6,0,17.6,5.2,17.6,14,0,8.6-5.7,13.2-13.4,13.2S13.2,73,12.8,65.3H0C.4,79,10,90.4,27.2,90.4Z" 
        fill="white"/>
</svg>
