<svg class="svg-icon" width="200" height="200" fill="white" viewBox="0 0 1024 1024" xmlns="http://www.w3.org/2000/svg">
  <path d="M850.6 410.2L525.8 139.5c-8-6.7-19.6-6.7-27.6 0L344 268.1v-18.6c0-11-9-20-20-20h-50c-11 0-20 9-20 20v93.7l-80.4 67.1c-15.4 12.8-6.3 38 13.8 38h37.8v428c0 11 8.9 20 20 20H779c11 0 20-8.9 20-20v-428h37.8c20.1-0.1 29.2-25.2 13.8-38.1zM371.4 547.1c0 7.5-6 13.5-13.5 13.5h-40.4c-7.5 0-13.5-6-13.5-13.5v-40.4c0-7.5 6-13.5 13.5-13.5h40.4c7.5 0 13.5 6 13.5 13.5v40.4z m0-91c0 7.5-6 13.5-13.5 13.5h-40.4c-7.5 0-13.5-6-13.5-13.5v-40.4c0-7.5 6-13.5 13.5-13.5h40.4c7.5 0 13.5 6 13.5 13.5v40.4z m93.2 91c0 7.5-6 13.5-13.5 13.5h-40.4c-7.5 0-13.5-6-13.5-13.5v-40.4c0-7.5 6-13.5 13.5-13.5h40.4c7.5 0 13.5 6 13.5 13.5v40.4z m0-91c0 7.5-6 13.5-13.5 13.5h-40.4c-7.5 0-13.5-6-13.5-13.5v-40.4c0-7.5 6-13.5 13.5-13.5h40.4c7.5 0 13.5 6 13.5 13.5v40.4z m281.1 376.6c0 11.1-9 20.1-20.1 20.1H575.8c-11.1 0-20.1-9-20.1-20.1V622.9c0-11.1 9-20.1 20.1-20.1h149.8c11.1 0 20.1 9 20.1 20.1v209.8z"/>
  <path d="M713.6 739.1m-15 0a15 15 0 1 0 30 0 15 15 0 1 0-30 0Z"/>
</svg>
